<svg width="80" height="50" viewBox="0 0 80 50" xmlns="http://www.w3.org/2000/svg">
<path d="M52.2326 3.30743H72.1951V8.12911H52.2326V3.30743ZM32.2301 22.3849C36.6429 20.2829 38.9543 17.0851 38.9543 12.1439C38.9543 2.37099 31.6498 0 23.2145 0H0V49.0536H23.8649C32.8105 49.0536 41.2058 44.7699 41.2058 34.8077C41.2058 28.6511 38.2839 24.0984 32.2301 22.3849ZM10.8268 8.3682H20.9831C24.8956 8.3682 28.4078 9.45407 28.4078 13.9769C28.4078 18.1411 25.676 19.8147 21.8036 19.8147H10.8268V8.3682ZM22.384 40.7252H10.8168V27.2166H22.6141C27.3771 27.2166 30.389 29.199 30.389 34.22C30.389 39.1612 26.7967 40.7252 22.384 40.7252ZM80 31.8091C80 21.2991 73.8261 12.5423 62.6592 12.5423C51.8024 12.5423 44.4178 20.6814 44.4178 31.3509C44.4178 42.4088 51.4121 50 62.6592 50C71.1745 50 76.6879 46.1845 79.3396 38.0454H70.7042C69.7636 41.0839 65.9412 42.6778 62.9694 42.6778C57.2258 42.6778 54.2239 39.3305 54.2239 33.6422H79.93C79.96 33.0544 80 32.4367 80 31.8091ZM54.2239 27.4856C54.5341 22.8133 57.666 19.8944 62.349 19.8944C67.272 19.8944 69.7336 22.7735 70.1639 27.4856H54.2239Z">
</svg>
