<svg width="50" height="50" viewBox="0 0 50 50" xmlns="http://www.w3.org/2000/svg">
<path d="M9.8032 0.0126953C4.41734 0.0126953 0.00933838 4.4206 0.00933838 9.80655V40.1986C0.00933838 45.5844 4.41724 49.9908 9.8032 49.9908H40.1953C45.5812 49.9908 49.9875 45.5845 49.9875 40.1986V9.80655C49.9875 4.4207 45.5812 0.0126953 40.1953 0.0126953H9.8032ZM12.2665 8.2601C14.8489 8.2601 16.4396 9.9554 16.4887 12.1838C16.4887 14.3631 14.8488 16.106 12.2165 16.106H12.1681C9.63485 16.106 7.9975 14.3632 7.9975 12.1838C7.9975 9.95545 9.6844 8.2601 12.2664 8.2601H12.2665ZM34.5205 18.6756C39.487 18.6756 43.21 21.9217 43.21 28.8974V41.9198H35.6624V29.7705C35.6624 26.7175 34.57 24.6346 31.8386 24.6346C29.7534 24.6346 28.5105 26.0385 27.9648 27.3947C27.7654 27.8799 27.7164 28.5575 27.7164 29.2363V41.9198H20.1688C20.1688 41.9198 20.2678 21.3392 20.1688 19.2082H27.718V22.4244C28.721 20.8769 30.5151 18.6755 34.5205 18.6755V18.6756ZM8.4427 19.2098H15.9904V41.9199H8.4427V19.2098Z">
</svg>
